<?xml version="1.0" encoding="utf-8"?>
<!-- Generator: Adobe Illustrator 22.0.1, SVG Export Plug-In . SVG Version: 6.00 Build 0)  -->
<svg version="1.1" id="Isolation_Mode" xmlns="http://www.w3.org/2000/svg" xmlns:xlink="http://www.w3.org/1999/xlink" x="0px"
	 y="0px" viewBox="0 0 254.4 253.9" style="enable-background:new 0 0 254.4 253.9;" xml:space="preserve">
<style type="text/css">
	.st0{fill:#705299;}
	.st1{fill:#FFFFFF;}
</style>
<path class="st0" d="M127.2,0.1L127.2,0.1C57.2,0.1,0.4,56.9,0.4,127v0c0,70,56.8,126.8,126.8,126.8h0.1
	c70,0,126.8-56.8,126.8-126.8v0C254.1,56.9,197.3,0.1,127.2,0.1z"/>
<path id="viber_3_" class="st1" d="M172.8,76.7c-4.9-4.2-10.7-6.7-16.8-8.3c-15.5-4.1-31.2-5.1-47.1-2.9c-8.1,1.1-15.8,3.2-23,7.2
	c-8.4,4.7-14.2,11.5-16.8,20.9c-1.8,6.7-2.7,13.6-3.1,20.5c-0.5,10.2-0.2,20.4,2.4,30.4c3,11.5,9.6,20,20.9,24.6
	c1.2,0.5,2.4,1.2,3.6,1.7c1.1,0.5,1.5,1.2,1.5,2.4c-0.1,8,0,16,0,24.3c3-2.9,5-5,6.5-6.6c4.4-5,8.6-9.2,13.3-14
	c2.3-2.4,1.4-2.3,5-2.2c4.3,0.1,11,0.2,15.3-0.1c8.1-0.6,16.2-1.7,24-4c10-3,17.9-8.3,22-18.4c1.1-2.7,2.1-5.4,2.8-8.2
	c3.9-16,3.4-32.1,0.1-48.1C181.9,88.4,178.7,81.8,172.8,76.7z M164.3,146.8c-2.4,5.4-6.5,9-12.2,10.6c-2.1,0.6-4.1,0.1-6-0.7
	c-26.2-11.1-45.1-29.5-55.8-56.1c-0.8-1.9-1.2-3.9-1.2-5.7c0-6.8,6-13.2,12.6-13.5c1.8-0.1,3.4,0.5,4.7,1.7c4.6,4.3,8.3,9.3,11,15.1
	c1.5,3.1,0.9,5.3-1.8,7.5c-0.4,0.4-0.9,0.7-1.3,1c-3.5,2.6-4.3,5.2-2.6,9.3c2.8,6.7,7.3,11.9,13.3,15.7c2.3,1.5,4.6,2.8,7.3,3.6
	c2.4,0.7,4.4,0,5.9-2c0.2-0.2,0.3-0.4,0.5-0.7c3.4-4.7,7-5.5,11.9-2.4c4.2,2.6,8.1,5.6,11.9,8.8C165,141.2,165.6,143.8,164.3,146.8z
	"/>
</svg>
