<?xml version="1.0" encoding="utf-8"?>
<!-- Generator: Adobe Illustrator 22.0.1, SVG Export Plug-In . SVG Version: 6.00 Build 0)  -->
<svg version="1.1" id="Isolation_Mode" xmlns="http://www.w3.org/2000/svg" xmlns:xlink="http://www.w3.org/1999/xlink" x="0px"
	 y="0px" viewBox="0 0 254.4 254" style="enable-background:new 0 0 254.4 254;" xml:space="preserve">
<style type="text/css">
	.st0{fill:#7EAF38;}
	.st1{fill-rule:evenodd;clip-rule:evenodd;fill:#FFFFFF;}
</style>
<path class="st0" d="M127.3,0.4L127.3,0.4C57.2,0.4,0.4,57.2,0.4,127.3v0c0,70,56.8,126.8,126.8,126.8h0.1
	c70,0,126.8-56.8,126.8-126.8v0C254.1,57.2,197.3,0.4,127.3,0.4z"/>
<g id="whatsapp_5_">
	<g>
		<path class="st1" d="M128.4,62.3c-34.9,0-63.3,28.3-63.3,63.3c0,12,3.3,23.1,9.1,32.7l-11.4,33.9l35-11.2c9.1,5,19.5,7.9,30.6,7.9
			c34.9,0,63.3-28.3,63.3-63.3C191.7,90.6,163.4,62.3,128.4,62.3z M128.4,178.2c-10.7,0-20.7-3.2-29-8.7L79.2,176l6.6-19.6
			c-6.3-8.7-10-19.4-10-30.9c0-29,23.6-52.7,52.7-52.7c29,0,52.7,23.6,52.7,52.7C181.1,154.6,157.5,178.2,128.4,178.2z M158.1,139.9
			c-1.6-0.9-9.4-5.1-10.8-5.7c-1.5-0.6-2.5-0.9-3.7,0.7c-1.1,1.6-4.4,5.1-5.3,6.1c-1,1-1.9,1.1-3.5,0.3c-1.6-0.9-6.7-2.8-12.7-8.5
			c-4.6-4.5-7.7-9.9-8.6-11.5c-0.9-1.7,0-2.5,0.8-3.3c0.8-0.7,1.7-1.8,2.5-2.7c0.8-0.9,1.1-1.6,1.7-2.6c0.6-1.1,0.3-2,0-2.8
			c-0.4-0.8-3.3-8.9-4.5-12.2c-1.2-3.3-2.6-2.8-3.5-2.8c-0.9,0-2-0.2-3.1-0.2c-1.1,0-2.8,0.3-4.4,1.9c-1.5,1.6-5.9,5.3-6.2,13.3
			c-0.3,7.9,5.2,15.8,6,16.9c0.8,1.1,10.5,18.3,26.7,25.4c16.2,7.1,16.3,4.9,19.2,4.8c3-0.2,9.7-3.6,11.2-7.3c1.5-3.7,1.6-7,1.2-7.6
			C160.7,141.2,159.7,140.8,158.1,139.9z"/>
	</g>
</g>
</svg>
