<?xml version="1.0" encoding="UTF-8"?>
<svg width="16px" height="16px" viewBox="0 0 16 16" version="1.1" xmlns="http://www.w3.org/2000/svg" xmlns:xlink="http://www.w3.org/1999/xlink">
    <!-- Generator: sketchtool 41 (35326) - http://www.bohemiancoding.com/sketch -->
    <title>05A1ECE5-B98D-4D31-940E-4AA8B5125945</title>
    <desc>Created with sketchtool.</desc>
    <defs></defs>
    <g id="iphone" stroke="none" stroke-width="1" fill="none" fill-rule="evenodd">
        <g id="resources" transform="translate(-198.000000, -381.000000)" fill="#222222">
            <path d="M198,393 L206,393 L206,395 L198,395 L198,393 Z M198,381 L214,381 L214,383 L198,383 L198,381 Z M198,387 L214,387 L214,389 L198,389 L198,387 Z M210,393 L208,393 L208,395 L210,395 L210,397 L212,397 L212,395 L214,395 L214,393 L212,393 L212,391 L210,391 L210,393 Z" id="add-to-compare"></path>
        </g>
    </g>
</svg>