<?xml version="1.0" encoding="UTF-8"?>
<svg width="18px" height="18px" viewBox="0 0 18 18" version="1.1" xmlns="http://www.w3.org/2000/svg" xmlns:xlink="http://www.w3.org/1999/xlink">
    <!-- Generator: sketchtool 41 (35326) - http://www.bohemiancoding.com/sketch -->
    <title>67C2689D-9B65-4E7D-B3C6-9EBEB38F01E8</title>
    <desc>Created with sketchtool.</desc>
    <defs></defs>
    <g id="iphone" stroke="none" stroke-width="1" fill="none" fill-rule="evenodd">
        <g id="resources" transform="translate(-46.000000, -44.000000)" fill="#ffffff">
            <path d="M52.969395,44 C49.1251604,44 46,47.1251604 46,50.969395 C46,54.8136297 49.1251604,57.93879 52.969395,57.93879 C54.4901601,57.93879 55.8966758,57.4484107 57.0434164,56.6192171 L62.4370107,62 L63.5900356,60.8469751 L58.2604982,55.5046263 C59.3076728,54.2850072 59.93879,52.6999831 59.93879,50.969395 C59.93879,47.1251604 56.8136297,44 52.969395,44 Z M52.969395,44.8199288 C56.3705073,44.8199288 59.1188612,47.5682827 59.1188612,50.969395 C59.1188612,54.3705073 56.3705073,57.1188612 52.969395,57.1188612 C49.5682827,57.1188612 46.8199288,54.3705073 46.8199288,50.969395 C46.8199288,47.5682827 49.5682827,44.8199288 52.969395,44.8199288 Z" id="header-search"></path>
        </g>
    </g>
</svg>