<?xml version="1.0" encoding="UTF-8"?>
<svg width="20px" height="19px" viewBox="0 0 20 19" version="1.1" xmlns="http://www.w3.org/2000/svg" xmlns:xlink="http://www.w3.org/1999/xlink">
    <!-- Generator: sketchtool 41 (35326) - http://www.bohemiancoding.com/sketch -->
    <title>E6DE3D19-FE6D-4056-91FC-A7015F2443F4</title>
    <desc>Created with sketchtool.</desc>
    <defs></defs>
    <g id="iphone" stroke="none" stroke-width="1" fill="none" fill-rule="evenodd">
        <g id="resources" transform="translate(-146.000000, -44.000000)" fill="#3878be">
            <path d="M154.849584,61.6359856 C154.849584,62.3881427 154.237695,63 153.485569,63 C152.733444,63 152.121555,62.3881113 152.121555,61.6359856 C152.121555,60.88386 152.733444,60.2719713 153.485569,60.2719713 C154.237695,60.2719713 154.849584,60.8837345 154.849584,61.6359856 L154.849584,61.6359856 Z M161.946237,60.2719399 C161.194112,60.2719399 160.582223,60.8838286 160.582223,61.6359543 C160.582223,62.3881113 161.194112,62.9999686 161.946237,62.9999686 C162.698363,62.9999686 163.310252,62.3880799 163.310252,61.6359543 C163.310252,60.8838286 162.698363,60.2719399 161.946237,60.2719399 L161.946237,60.2719399 Z M165.09573,48.4875501 C165.003139,48.3762206 164.865821,48.3118459 164.721064,48.3116576 L150.173932,48.2960269 L149.207904,44.3716216 C149.154075,44.1534194 148.958378,44 148.733741,44 L146.48835,44 C146.218579,44 146,44.2185788 146,44.4883497 C146,44.7581205 146.218579,44.9766993 146.48835,44.9766993 L148.350883,44.9766993 L151.131485,56.272865 L151.548806,58.2399797 C151.717856,59.0374281 152.432317,59.6162036 153.247531,59.6162036 L162.654704,59.6162036 C162.924475,59.6162036 163.143053,59.3976248 163.143053,59.1278539 C163.143053,58.858083 162.924475,58.6395043 162.654704,58.6395043 L153.247531,58.6395043 C152.890849,58.6395043 152.578204,58.3862429 152.504382,58.0372827 L152.2106,56.6523647 L163.373245,56.6523647 C163.609024,56.6523647 163.811093,56.4837853 163.853591,56.2518357 L165.200814,48.8877652 C165.226896,48.745394 165.188416,48.5986913 165.09573,48.4875501 L165.09573,48.4875501 Z" id="shoping-cart"></path>
        </g>
    </g>
</svg>