<?xml version="1.0" encoding="UTF-8"?>
<svg width="139px" height="26px" viewBox="0 0 139 26" version="1.1" xmlns="http://www.w3.org/2000/svg" xmlns:xlink="http://www.w3.org/1999/xlink">
    <!-- Generator: sketchtool 41 (35326) - http://www.bohemiancoding.com/sketch -->
    <title>BC9C288C-B02D-4E3E-A2CA-E1F36CCFE99C</title>
    <desc>Created with sketchtool.</desc>
    <defs></defs>
    <g id="iphone" stroke="none" stroke-width="1" fill="none" fill-rule="evenodd">
        <g id="resources" transform="translate(-227.000000, -40.000000)">
            <g id="xcom-logo" transform="translate(227.000000, 40.000000)">
                <ellipse id="Oval" fill="#0E6AA2" cx="93.1886498" cy="13.0924444" rx="2.20523207" ry="2.17244444"></ellipse>
                <polygon id="Shape" fill="#BABCBE" points="19.6887342 19.396 25.8938819 25.5088889 39.3774684 25.5088889 26.4334599 12.7515556"></polygon>
                <polygon id="Shape" fill="#BABCBE" points="39.3774684 0 25.8938819 0 19.6945992 6.10711111 26.4334599 12.7515556"></polygon>
                <polygon id="Shape" fill="#0E6AA2" points="19.6945992 6.10711111 13.4894515 0 0 0 12.9440084 12.7515556 0 25.5031111 13.4894515 25.5031111 19.6887342 19.396 26.4334599 12.7515556"></polygon>
                <polygon id="Shape" fill="#232020" points="41.6061603 8.01955556 44.8729536 8.01955556 46.3274684 10.4231111 46.9139662 11.5786667 47.6001688 10.3711111 48.9725738 8.008 52.0164979 8.008 48.8259494 13.0288889 52.3449367 18.3271111 49.0664135 18.3271111 47.3069198 15.5884444 46.6793671 14.4328889 45.9755696 15.6231111 44.3216456 18.3213333 41.2777215 18.3213333 44.7967089 13.0231111"></polygon>
                <path d="M60.1864135,8.13511111 L60.0280591,10.0822222 C59.7765092,9.97675744 59.5124537,9.90298939 59.2421519,9.86266667 C58.9409764,9.82147069 58.6371324,9.80215931 58.3330802,9.80488889 C57.4439962,9.77154045 56.5853665,10.1268031 55.9870886,10.7755556 C55.3875345,11.4406988 55.0704642,12.3074351 55.1014768,13.1964444 C55.0575031,14.0787665 55.3647168,14.9431733 55.9577637,15.6057778 C56.5258359,16.2063978 57.3301622,16.535146 58.1629958,16.5071111 C58.5291571,16.5067549 58.894446,16.47193 59.2538819,16.4031111 C59.599462,16.339039 59.9374808,16.2403027 60.2626582,16.1084444 L60.3623629,18.0555556 C59.9487495,18.1754531 59.5274953,18.2681022 59.1013924,18.3328889 C58.6323918,18.4110668 58.1577275,18.4516443 57.6820675,18.4542222 C56.0710748,18.5469341 54.5101643,17.8851651 53.4710127,16.6688889 C52.6405845,15.6461766 52.2042865,14.3669772 52.2393671,13.0577778 C52.2090312,11.7618818 52.6857112,10.5041183 53.5707173,9.54488889 C54.6863532,8.3860781 56.2627659,7.76911411 57.8814768,7.85777778 C58.6583916,7.85732654 59.4324476,7.95046209 60.1864135,8.13511111 L60.1864135,8.13511111 Z" id="Shape" fill="#232020"></path>
                <path d="M60.5500422,13.1617778 C60.4808803,11.7397655 60.9968144,10.350374 61.981097,9.308 C64.2562199,7.37654433 67.6236957,7.37654433 69.8988186,9.308 C71.8051785,11.531805 71.8051785,14.7859727 69.8988186,17.0097778 C67.6236957,18.9412334 64.2562199,18.9412334 61.981097,17.0097778 C60.9983027,15.9688289 60.4824802,14.5818204 60.5500422,13.1617778 L60.5500422,13.1617778 Z M63.4121519,13.1617778 C63.3539216,14.0445938 63.6021014,14.9206823 64.1159494,15.6462222 C64.5503125,16.1981089 65.2193461,16.5210762 65.9282278,16.5210762 C66.6371096,16.5210762 67.3061432,16.1981089 67.7405063,15.6462222 C68.2652709,14.9292693 68.5222102,14.0556001 68.4677637,13.1733333 C68.524552,12.3013734 68.2806806,11.4360823 67.7756962,10.7177778 C67.3549091,10.1510218 66.6820027,9.81957103 65.9692827,9.828 C65.2525454,9.81740043 64.5741555,10.14618 64.1452743,10.712 C63.6261951,11.4231722 63.3677029,12.2869412 63.4121519,13.1617778 L63.4121519,13.1617778 Z" id="Shape" fill="#232020"></path>
                <path d="M75.0834599,18.304 L72.3445148,18.304 L72.3445148,8.01955556 L74.9427004,8.01955556 L74.9427004,9.75288889 C75.2203806,9.16299993 75.6747576,8.6710198 76.2447257,8.34311111 C76.8417435,8.00490891 77.5209348,7.83314176 78.2094937,7.84622222 C78.7072757,7.83402919 79.2023088,7.92251822 79.6640084,8.10622222 C80.377216,8.41060874 80.9016491,9.03014292 81.0774684,9.776 C81.4231512,9.18500701 81.923415,8.69617163 82.5261181,8.36044444 C83.1474878,8.01804333 83.8493563,7.84269431 84.5612658,7.852 C85.9180309,7.852 86.8642475,8.32192593 87.3999156,9.26177778 C87.7573653,9.9344018 87.931179,10.6870148 87.9043038,11.4457778 L87.9043038,18.2982222 L85.1653586,18.2982222 L85.1653586,12.5204444 C85.1899572,12.0051615 85.136588,11.4891407 85.0070042,10.9893333 C84.8301454,10.3902718 84.247821,9.99814542 83.6170042,10.0533333 C83.0302692,10.0444943 82.4721032,10.3023777 82.1038397,10.7524444 C81.6846384,11.2858692 81.4762336,11.9510613 81.5173418,12.6244444 L81.5173418,18.3155556 L78.7783966,18.3155556 L78.7783966,12.5377778 C78.8057648,11.9851732 78.7363252,11.4320529 78.5731224,10.9026667 C78.3772966,10.3659917 77.8426066,10.0234925 77.2652321,10.0648889 C76.697644,10.0490459 76.1521071,10.2817893 75.7755274,10.7004444 C75.3119983,11.2364101 75.0747939,11.9271034 75.1127848,12.6302222 L75.1127848,18.3213333 L75.0834599,18.304 Z" id="Shape" fill="#232020"></path>
                <path d="M105.182532,8.29688889 L104.942068,10.244 C104.559495,10.0993002 104.167644,9.97963273 103.769072,9.88577778 C103.384642,9.79607232 102.991135,9.74955356 102.596076,9.74711111 C102.059824,9.70092488 101.52417,9.84205135 101.082911,10.1457778 C100.877275,10.3115578 100.758715,10.560017 100.760338,10.8217778 C100.773469,11.2519454 101.052764,11.6302664 101.464135,11.7751111 C101.5873,11.8271111 101.880549,11.9311111 102.349747,12.0928889 C103.033008,12.2704433 103.681258,12.5594785 104.267595,12.948 C105.029978,13.4867108 105.469834,14.3641749 105.440591,15.288 C105.491233,16.3220289 104.946929,17.2961467 104.032996,17.8071111 C103.223156,18.261558 102.301889,18.4874508 101.370295,18.46 C100.779933,18.4553049 100.191146,18.399235 99.6108017,18.2924444 C99.0310843,18.1956926 98.4603039,18.0527037 97.9040928,17.8648889 L98.0272574,15.7617778 C98.5137167,15.9659845 99.0157473,16.1321279 99.528692,16.2586667 C99.9994665,16.3829509 100.484131,16.4489411 100.971477,16.4551111 C101.432277,16.4892871 101.891734,16.3735936 102.279367,16.1257778 C102.540779,15.9464894 102.698087,15.6537694 102.701646,15.34 C102.693195,14.9476975 102.468374,14.5911175 102.115148,14.4097778 C101.712417,14.2077431 101.294825,14.0358504 100.865907,13.8955556 C99.9734387,13.6545542 99.1631595,13.1816018 98.5199156,12.5262222 C98.1824047,12.0498405 98.0134032,11.4772817 98.0389873,10.8968889 C98.0163694,10.1319103 98.3156379,9.3917264 98.8659494,8.85155556 C99.6824208,8.13805495 100.756824,7.77968935 101.845359,7.85777778 C102.433659,7.85653417 103.021412,7.89320506 103.604852,7.96755556 C104.138762,8.03604213 104.666311,8.14616567 105.182532,8.29688889 L105.182532,8.29688889 Z" id="Shape" fill="#0E6AA2"></path>
                <path d="M106.484557,18.304 L106.484557,3.39155556 L109.223502,3.39155556 L109.223502,8.01377778 L109.123797,9.60844444 C109.589092,8.96132254 110.231986,8.45826186 110.977131,8.15822222 C111.461364,7.9546513 111.981446,7.84668485 112.50789,7.84044444 C113.5028,7.78336654 114.479228,8.12274184 115.217511,8.78222222 C115.907456,9.50792096 116.261964,10.4824407 116.196962,11.4746667 L116.196962,18.2866667 L113.463882,18.2866667 L113.463882,12.3702222 C113.49217,11.8468907 113.402021,11.3239079 113.199958,10.8391111 C112.908421,10.2936228 112.309202,9.97787602 111.686793,10.0417778 C111.087384,10.0356483 110.5121,10.2740513 110.097384,10.7004444 C109.480758,11.3730325 109.167529,12.2633053 109.229367,13.1675556 L109.229367,18.304 L106.484557,18.304 L106.484557,18.304 Z" id="Shape" fill="#0E6AA2"></path>
                <path d="M117.211603,13.1617778 C117.142442,11.7397655 117.658376,10.350374 118.642658,9.308 C120.917781,7.37654433 124.285257,7.37654433 126.56038,9.308 C128.46674,11.531805 128.46674,14.7859727 126.56038,17.0097778 C124.285257,18.9412334 120.917781,18.9412334 118.642658,17.0097778 C117.659864,15.9688289 117.144041,14.5818204 117.211603,13.1617778 L117.211603,13.1617778 Z M120.073713,13.1617778 C120.015483,14.0445938 120.263663,14.9206823 120.777511,15.6462222 C121.211874,16.1981089 121.880907,16.5210762 122.589789,16.5210762 C123.298671,16.5210762 123.967704,16.1981089 124.402068,15.6462222 C124.926832,14.9292693 125.183771,14.0556001 125.129325,13.1733333 C125.180162,12.2967899 124.927933,11.4291496 124.413797,10.712 C123.994219,10.146913 123.323908,9.81566545 122.613249,9.82222222 C121.896512,9.81162265 121.218122,10.1404022 120.789241,10.7062222 C120.275114,11.4211915 120.022817,12.2870253 120.073713,13.1617778 L120.073713,13.1617778 Z" id="Shape" fill="#0E6AA2"></path>
                <path d="M131.340338,22.5506667 L128.601392,22.5506667 L128.601392,8.01955556 L131.000169,8.01955556 L131.000169,9.80488889 C131.337557,9.23319184 131.815571,8.75433728 132.390169,8.41244444 C133.006169,8.03467243 133.717302,7.83451241 134.442911,7.83466667 C135.671082,7.77947046 136.856619,8.28457056 137.65692,9.204 C138.438917,10.1168889 138.829916,11.4265185 138.829916,13.1328889 C138.829916,14.9856296 138.333347,16.3761481 137.340211,17.3044444 C136.530138,18.0710807 135.442719,18.4871005 134.319747,18.46 C133.648448,18.4784105 132.984948,18.3145022 132.401899,17.9862222 C131.964185,17.7112307 131.593656,17.3442374 131.316878,16.9115556 L131.316878,18.5986667 L131.316878,22.5506667 L131.340338,22.5506667 Z M131.340338,13.1617778 C131.293182,13.9834298 131.526483,14.796997 132.00308,15.4728889 C132.380829,16.0027015 132.996856,16.3180542 133.654072,16.3180542 C134.311287,16.3180542 134.927314,16.0027015 135.305063,15.4728889 C136.194821,14.0568127 136.194821,12.2667428 135.305063,10.8506667 C134.927314,10.3208541 134.311287,10.0055014 133.654072,10.0055014 C132.996856,10.0055014 132.380829,10.3208541 132.00308,10.8506667 C131.526069,11.5263658 131.292727,12.3400765 131.340338,13.1617778 L131.340338,13.1617778 Z" id="Shape" fill="#0E6AA2"></path>
            </g>
        </g>
    </g>
</svg>